<svg xmlns="http://www.w3.org/2000/svg" viewBox="0 0 800 880" font-family="Arial, sans-serif" font-size="14">
  <defs>
    <!-- 协调的渐变色系统 -->
    <linearGradient id="grad-start-v2" x1="0%" y1="0%" x2="100%" y2="0%">
      <stop offset="0%" style="stop-color:#FFF4E6;stop-opacity:1" />
      <stop offset="100%" style="stop-color:#FFE4B5;stop-opacity:1" />
    </linearGradient>
    <linearGradient id="grad-process-v2" x1="0%" y1="0%" x2="100%" y2="0%">
      <stop offset="0%" style="stop-color:#D4F1F4;stop-opacity:1" />
      <stop offset="100%" style="stop-color:#A9D3E0;stop-opacity:1" />
    </linearGradient>
    <linearGradient id="grad-stack-v2" x1="0%" y1="0%" x2="100%" y2="0%">
      <stop offset="0%" style="stop-color:#E8F0FE;stop-opacity:1" />
      <stop offset="100%" style="stop-color:#D2E3FC;stop-opacity:1" />
    </linearGradient>
    <linearGradient id="grad-heap-v2" x1="0%" y1="0%" x2="100%" y2="0%">
      <stop offset="0%" style="stop-color:#FFDDC1;stop-opacity:1" />
      <stop offset="100%" style="stop-color:#FFC3A0;stop-opacity:1" />
    </linearGradient>
    <linearGradient id="grad-end-v2" x1="0%" y1="0%" x2="100%" y2="0%">
      <stop offset="0%" style="stop-color:#F3E8FF;stop-opacity:1" />
      <stop offset="100%" style="stop-color:#E9D5FF;stop-opacity:1" />
    </linearGradient>
    
    <marker id="arrow-v2" viewBox="0 0 10 10" refX="8" refY="5" markerWidth="6" markerHeight="6" orient="auto-start-reverse">
      <path d="M 0 0 L 10 5 L 0 10 z" fill="#374151" />
    </marker>
    
    <style>
      .flow-rect-v2, .flow-proc-v2, .flow-term-v2 { stroke-width: 1.5; rx: 8; ry: 8; }
      .flow-rect-v2 { stroke: #374151; }
      .flow-proc-v2 { stroke: #374151; }
      .flow-term-v2 { stroke: #374151; }
      .flow-text-v2 { font-size: 14px; text-anchor: middle; fill: #1F2937; font-weight: 500; }
      .flow-desc-v2 { font-size: 12px; text-anchor: middle; fill: #4B5563; }
      .flow-line-v2 { stroke: #374151; stroke-width: 2; marker-end: url(#arrow-v2); }
      .area-bg-v2 { fill: rgba(255, 248, 225, 0.3); stroke: #F0B27A; stroke-width: 1; rx: 10; ry: 10; }
      .area-title-v2 { font-size: 16px; font-weight: bold; text-anchor: middle; fill: #1F2937; }
    </style>
  </defs>

  <!-- 背景分区 -->
  <rect x="20" y="20" width="760" height="840" class="area-bg-v2"/>
  <text x="400" y="55" class="area-title-v2">Java 内存分配流程</text>

  <!-- 流程图内容 -->
  <g id="step1">
    <rect x="350" y="80" width="100" height="40" class="flow-term-v2" fill="url(#grad-start-v2)" />
    <text x="400" y="105" class="flow-text-v2">程序开始</text>
  </g>
  <path d="M 400 120 V 150" class="flow-line-v2" />

  <g id="step2">
    <rect x="280" y="150" width="240" height="60" class="flow-rect-v2" fill="url(#grad-process-v2)" />
    <text x="400" y="175" class="flow-text-v2">1. main() 方法被调用</text>
    <text x="400" y="195" class="flow-desc-v2">JVM 为其创建栈帧</text>
  </g>
  <path d="M 400 210 V 240" class="flow-line-v2" />

  <g id="step3">
    <rect x="280" y="240" width="240" height="60" class="flow-rect-v2" fill="url(#grad-process-v2)" />
    <text x="400" y="265" class="flow-text-v2">2. 声明 int a = 10;</text>
    <text x="400" y="285" class="flow-desc-v2">值直接存入 main 栈帧</text>
  </g>
  <path d="M 400 300 V 330" class="flow-line-v2" />
  
  <g id="step4">
    <rect x="280" y="330" width="240" height="60" class="flow-proc-v2" fill="url(#grad-heap-v2)" />
    <text x="400" y="355" class="flow-text-v2">3. new DataObject()</text>
    <text x="400" y="375" class="flow-desc-v2">在 Java 堆中分配内存</text>
  </g>
  <path d="M 400 390 V 420" class="flow-line-v2" />

  <!-- 分区：栈和堆的并行处理 -->
  <g id="allocation-detail">
    <rect x="40" y="420" width="720" height="150" fill="rgba(225, 245, 254, 0.3)" stroke="#76D7C4" stroke-width="1" rx="8"/>
    <text x="400" y="445" class="area-title-v2">内存分配详情</text>

    <!-- 左右分支 -->
    <path d="M 400 450 C 400 460, 200 460, 200 480" fill="none" class="flow-line-v2" />
    <path d="M 400 450 C 400 460, 600 460, 600 480" fill="none" class="flow-line-v2" />

    <g id="step5-stack">
      <rect x="120" y="480" width="160" height="70" class="flow-rect-v2" fill="url(#grad-stack-v2)" />
      <text x="200" y="505" class="flow-text-v2">4a. 栈中存储引用</text>
      <text x="200" y="525" class="flow-desc-v2" font-family="monospace" font-size="12px">DataObject obj</text>
      <text x="200" y="540" class="flow-desc-v2">→ 指向堆中对象</text>
    </g>
    
    <g id="step5-heap">
      <rect x="520" y="480" width="160" height="70" class="flow-proc-v2" fill="url(#grad-heap-v2)" />
      <text x="600" y="505" class="flow-text-v2">4b. 堆中存储实例</text>
      <text x="600" y="525" class="flow-desc-v2" font-family="monospace" font-size="12px">new DataObject()</text>
      <text x="600" y="540" class="flow-desc-v2">对象数据 + 对象头</text>
    </g>
  </g>

  <!-- 流程汇合 -->
  <path d="M 200 550 V 600 C 200 630, 400 600, 400 650" fill="none" class="flow-line-v2" />
  <path d="M 600 550 V 600 C 600 630, 400 600, 400 650" fill="none" class="flow-line-v2" marker-end="none"/>
  
  <g id="step6">
    <rect x="280" y="650" width="240" height="60" class="flow-rect-v2" fill="url(#grad-process-v2)" />
    <text x="400" y="675" class="flow-text-v2">5. 方法执行完毕</text>
    <text x="400" y="695" class="flow-desc-v2">栈帧出栈, 内存释放</text>
  </g>
  <path d="M 400 710 V 740" class="flow-line-v2" />

  <g id="step-final">
    <rect x="350" y="740" width="100" height="40" class="flow-term-v2" fill="url(#grad-end-v2)" />
    <text x="400" y="765" class="flow-text-v2">程序结束</text>
  </g>
</svg> 