<?xml version="1.0" encoding="UTF-8"?>
<svg xmlns="http://www.w3.org/2000/svg" width="1200" height="720" viewBox="0 0 1200 720">
  <defs>
    <filter id="shadow" x="-20%" y="-20%" width="140%" height="140%">
      <feDropShadow dx="0" dy="2" stdDeviation="4" flood-color="#000" flood-opacity="0.12"/>
    </filter>
    <style>
      .h1 { font: 700 22px 'Inter', Arial, sans-serif; fill: #1f2a44; }
      .h2 { font: 700 16px 'Inter', Arial, sans-serif; fill: #24324d; }
      .txt { font: 600 13px 'Inter', Arial, sans-serif; fill: #24324d; }
      .sub { font: 500 12px 'Inter', Arial, sans-serif; fill: #3a4a66; }
      .panel { stroke: #7aa5b7; fill: rgba(225,245,254,0.6); rx: 16; filter: url(#shadow); }
      .box { stroke: #8aa0b3; fill: #fff; rx: 12; filter: url(#shadow); }
    </style>
  </defs>

  <text x="24" y="36" class="h1">微服务生态技术体系概览</text>

  <rect x="24" y="64" width="560" height="300" class="panel"/>
  <text x="48" y="92" class="h2">注册发现与配置</text>
  <rect x="48" y="112" width="520" height="96" class="box"/>
  <text x="60" y="138" class="txt">Eureka / Nacos</text>
  <text x="60" y="162" class="sub">服务注册、发现、健康检查、配置中心</text>

  <rect x="616" y="64" width="560" height="300" class="panel"/>
  <text x="640" y="92" class="h2">网关与治理</text>
  <rect x="640" y="112" width="520" height="96" class="box"/>
  <text x="652" y="138" class="txt">Spring Cloud Gateway</text>
  <text x="652" y="162" class="sub">路由、限流、鉴权、熔断、重试</text>

  <rect x="24" y="384" width="560" height="280" class="panel"/>
  <text x="48" y="412" class="h2">观测与追踪</text>
  <rect x="48" y="432" width="520" height="96" class="box"/>
  <text x="60" y="458" class="txt">Prometheus / Grafana / Zipkin</text>
  <text x="60" y="482" class="sub">指标、日志、分布式追踪、SLO</text>

  <rect x="616" y="384" width="560" height="280" class="panel"/>
  <text x="640" y="412" class="h2">一致性与事务</text>
  <rect x="640" y="432" width="520" height="96" class="box"/>
  <text x="652" y="458" class="txt">Saga / TCC / Outbox</text>
  <text x="652" y="482" class="sub">事件驱动、幂等性、补偿</text>

</svg> 