<svg xmlns="http://www.w3.org/2000/svg" viewBox="0 0 1200 800" font-family="Inter, Arial, sans-serif">
    <defs>
        <linearGradient id="grad-heap-compact" x1="0%" y1="0%" x2="100%" y2="0%">
            <stop offset="0%" style="stop-color:#FCE4EC;stop-opacity:1" />
            <stop offset="100%" style="stop-color:#F8BBD0;stop-opacity:1" />
        </linearGradient>
        <marker id="arrowhead-compact" viewBox="0 0 10 10" refX="8" refY="5" markerWidth="6" markerHeight="6" orient="auto-start-reverse">
            <path d="M 0 0 L 10 5 L 0 10 z" fill="#AD1457"/>
        </marker>
        <style>
            .bg { fill: #FFFFFF; }
            .title { font-size: 28px; font-weight: 700; text-anchor: middle; fill: #212529; }
            .stage-title { font-size: 20px; font-weight: bold; text-anchor: middle; fill: #343A40; }
            .panel { fill: #F8F9FA; stroke: #DEE2E6; stroke-width: 1.5; rx: 12; ry: 12; }
            
            .heap-area { fill: url(#grad-heap-compact); stroke: #C2185B; stroke-width: 2; rx: 8; ry: 8; }
            .heap-label { font-size: 16px; font-weight: bold; text-anchor: middle; fill: #880E4F; }

            .object { stroke: #37474F; stroke-width: 1; rx: 4; ry: 4; }
            .alive { fill: #C8E6C9; } /* Light Green */
            .garbage { fill: #FFCDD2; } /* Light Red */
            .free { fill: #ECEFF1; stroke-dasharray: 4 4; stroke: #78909C; }
            .label { font-size: 16px; text-anchor: middle; fill: #263238; font-weight: 500;}

            .move-arrow { fill: none; stroke: #AD1457; stroke-width: 2.5; marker-end: url(#arrowhead-compact); }
            .desc-text { font-size: 16px; text-anchor: middle; fill: #495057; }
        </style>
    </defs>

    <rect x="0" y="0" width="1200" height="800" class="bg"/>

    <text x="600" y="60" class="title">标记-整理 (Mark-Compact) 算法执行流程</text>

    <!-- 阶段1: 标记 -->
    <g transform="translate(50, 120)">
        <rect x="0" y="0" width="500" height="600" class="panel"/>
        <text x="250" y="50" class="stage-title">1. 标记阶段 (Marking)</text>
        <text x="250" y="80" class="desc-text">与"标记-清除"算法一致，标记存活对象。</text>

        <rect x="25" y="120" width="450" height="150" class="heap-area" />
        <text x="250" y="150" class="heap-label">Heap Memory</text>

        <g transform="translate(40, 180)">
            <rect x="0" y="0" width="60" height="60" class="object alive" /><text x="30" y="35" class="label">A</text>
            <rect x="70" y="0" width="60" height="60" class="object garbage" /><text x="100" y="35" class="label">B</text>
            <rect x="140" y="0" width="60" height="60" class="object alive" /><text x="170" y="35" class="label">C</text>
            <rect x="210" y="0" width="60" height="60" class="object alive" /><text x="240" y="35" class="label">D</text>
            <rect x="280" y="0" width="60" height="60" class="object garbage" /><text x="310" y="35" class="label">E</text>
            <rect x="350" y="0" width="60" height="60" class="object alive" /><text x="380" y="35" class="label">F</text>
        </g>
        
        <g transform="translate(40, 180)">
             <circle cx="30" cy="-10" r="10" fill="#4CAF50" stroke="#FFFFFF" stroke-width="2" />
             <circle cx="170" cy="-10" r="10" fill="#4CAF50" stroke="#FFFFFF" stroke-width="2" />
             <circle cx="240" cy="-10" r="10" fill="#4CAF50" stroke="#FFFFFF" stroke-width="2" />
             <circle cx="380" cy="-10" r="10" fill="#4CAF50" stroke="#FFFFFF" stroke-width="2" />
        </g>
    </g>
    
    <!-- Arrow -->
    <path d="M 555 420 L 645 420" stroke="#455A64" stroke-width="2.5" marker-end="url(#arrowhead-compact)"/>
    
    <!-- 阶段2: 整理 -->
    <g transform="translate(650, 120)">
        <rect x="0" y="0" width="500" height="600" class="panel"/>
        <text x="250" y="50" class="stage-title">2. 整理阶段 (Compacting)</text>
        <text x="250" y="80" class="desc-text">移动存活对象到一端，清理出连续空间。</text>

        <rect x="25" y="120" width="450" height="150" class="heap-area" />
        <text x="250" y="150" class="heap-label">Heap Memory</text>

        <g transform="translate(40, 180)">
            <!-- Moved objects -->
            <rect x="0" y="0" width="60" height="60" class="object alive" /><text x="30" y="35" class="label">A</text>
            <rect x="70" y="0" width="60" height="60" class="object alive" /><text x="100" y="35" class="label">C</text>
            <rect x="140" y="0" width="60" height="60" class="object alive" /><text x="170" y="35" class="label">D</text>
            <rect x="210" y="0" width="60" height="60" class="object alive" /><text x="240" y="35" class="label">F</text>

            <!-- Free space -->
            <rect x="280" y="0" width="130" height="60" class="object free" />
            <text x="345" y="35" class="label">Free</text>
        </g>

        <!-- Result Panel -->
        <rect x="25" y="350" width="450" height="150" class="panel" fill="#E8F5E9" stroke="#388E3C"/>
        <text x="250" y="390" class="stage-title" font-size="18px">最终结果</text>
        <text x="250" y="430" class="desc-text" font-weight="bold" fill="#1B5E20">内存空间规整，无碎片</text>
        <text x="250" y="460" class="desc-text" >(但移动存活对象及其引用有性能开销)</text>
    </g>
</svg> 