<svg xmlns="http://www.w3.org/2000/svg" viewBox="0 0 1200 800" font-family="Inter, Arial, sans-serif">
    <defs>
        <linearGradient id="grad-heap" x1="0%" y1="0%" x2="100%" y2="0%">
            <stop offset="0%" style="stop-color:#FFF3E0;stop-opacity:1" />
            <stop offset="100%" style="stop-color:#FFE0B2;stop-opacity:1" />
        </linearGradient>
        <style>
            .bg { fill: #FFFFFF; }
            .title { font-size: 28px; font-weight: 700; text-anchor: middle; fill: #212529; }
            .stage-title { font-size: 20px; font-weight: bold; text-anchor: middle; fill: #343A40; }
            .panel { fill: #F8F9FA; stroke: #DEE2E6; stroke-width: 1.5; rx: 12; ry: 12; }
            
            .heap-area { fill: url(#grad-heap); stroke: #FB8C00; stroke-width: 2; rx: 8; ry: 8; }
            .heap-label { font-size: 16px; font-weight: bold; text-anchor: middle; fill: #BF360C; }

            .object { stroke: #37474F; stroke-width: 1; rx: 4; ry: 4; }
            .alive { fill: #C8E6C9; } /* Light Green */
            .garbage { fill: #FFCDD2; } /* Light Red */
            .free { fill: #ECEFF1; stroke-dasharray: 4 4; stroke: #78909C; }
            .label { font-size: 16px; text-anchor: middle; fill: #263238; font-weight: 500;}

            .arrow { fill: #455A64; }
            .desc-text { font-size: 16px; text-anchor: middle; fill: #495057; }
        </style>
    </defs>

    <rect x="0" y="0" width="1200" height="800" class="bg"/>

    <text x="600" y="60" class="title">标记-清除 (Mark-Sweep) 算法执行流程</text>

    <!-- 阶段1: 标记 -->
    <g transform="translate(50, 120)">
        <rect x="0" y="0" width="500" height="600" class="panel"/>
        <text x="250" y="50" class="stage-title">1. 标记阶段 (Marking)</text>
        <text x="250" y="80" class="desc-text">从 GC Roots 出发，递归标记所有存活对象。</text>

        <rect x="25" y="120" width="450" height="150" class="heap-area" />
        <text x="250" y="150" class="heap-label">Heap Memory</text>

        <g transform="translate(40, 180)">
            <rect x="0" y="0" width="60" height="60" class="object alive" /><text x="30" y="35" class="label">A</text>
            <rect x="70" y="0" width="60" height="60" class="object garbage" /><text x="100" y="35" class="label">B</text>
            <rect x="140" y="0" width="60" height="60" class="object alive" /><text x="170" y="35" class="label">C</text>
            <rect x="210" y="0" width="60" height="60" class="object alive" /><text x="240" y="35" class="label">D</text>
            <rect x="280" y="0" width="60" height="60" class="object garbage" /><text x="310" y="35" class="label">E</text>
            <rect x="350" y="0" width="60" height="60" class="object alive" /><text x="380" y="35" class="label">F</text>
        </g>
        
        <!-- Markings -->
        <g transform="translate(40, 180)">
             <circle cx="30" cy="-10" r="10" fill="#4CAF50" stroke="#FFFFFF" stroke-width="2" />
             <circle cx="170" cy="-10" r="10" fill="#4CAF50" stroke="#FFFFFF" stroke-width="2" />
             <circle cx="240" cy="-10" r="10" fill="#4CAF50" stroke="#FFFFFF" stroke-width="2" />
             <circle cx="380" cy="-10" r="10" fill="#4CAF50" stroke="#FFFFFF" stroke-width="2" />
        </g>
    </g>
    
    <!-- Arrow -->
    <path d="M 555 420 L 645 420" class="arrow" marker-end="url(#arrowhead)"/>
    
    <!-- 阶段2: 清除 -->
    <g transform="translate(650, 120)">
        <rect x="0" y="0" width="500" height="600" class="panel"/>
        <text x="250" y="50" class="stage-title">2. 清除阶段 (Sweeping)</text>
        <text x="250" y="80" class="desc-text">回收所有未被标记的垃圾对象。</text>

        <rect x="25" y="120" width="450" height="150" class="heap-area" />
        <text x="250" y="150" class="heap-label">Heap Memory</text>

        <g transform="translate(40, 180)">
            <rect x="0" y="0" width="60" height="60" class="object alive" /><text x="30" y="35" class="label">A</text>
            <rect x="70" y="0" width="60" height="60" class="object free" />
            <rect x="140" y="0" width="60" height="60" class="object alive" /><text x="170" y="35" class="label">C</text>
            <rect x="210" y="0" width="60" height="60" class="object alive" /><text x="240" y="35" class="label">D</text>
            <rect x="280" y="0" width="60" height="60" class="object free" />
            <rect x="350" y="0" width="60" height="60" class="object alive" /><text x="380" y="35" class="label">F</text>
        </g>

        <!-- Result Panel -->
        <rect x="25" y="350" width="450" height="150" class="panel" fill="#FFF9C4" stroke="#FBC02D"/>
        <text x="250" y="390" class="stage-title" font-size="18px">最终结果</text>
        <text x="250" y="430" class="desc-text" font-weight="bold" fill="#C62828">产生大量不连续的内存碎片</text>
        <text x="250" y="460" class="desc-text" >(Free Space)</text>
    </g>
</svg> 