<svg xmlns="http://www.w3.org/2000/svg" viewBox="0 0 1000 700" font-family="Arial, sans-serif" font-size="14">
  <defs>
    <linearGradient id="grad-heap-v2" x1="0%" y1="0%" x2="100%" y2="0%">
      <stop offset="0%" style="stop-color:#FFDDC1;stop-opacity:1" />
      <stop offset="100%" style="stop-color:#FFC3A0;stop-opacity:1" />
    </linearGradient>
    <linearGradient id="grad-stack-v2" x1="0%" y1="0%" x2="100%" y2="0%">
      <stop offset="0%" style="stop-color:#D4F1F4;stop-opacity:1" />
      <stop offset="100%" style="stop-color:#A9D3E0;stop-opacity:1" />
    </linearGradient>
    <linearGradient id="grad-meta-v2" x1="0%" y1="0%" x2="100%" y2="0%">
      <stop offset="0%" style="stop-color:#EAEAEA;stop-opacity:1" />
      <stop offset="100%" style="stop-color:#DCDCDC;stop-opacity:1" />
    </linearGradient>
    <style>
      .area-title-v2 { font-size: 16px; font-weight: bold; text-anchor: middle; }
      .box-v2 { stroke: #333; stroke-width: 1.5; rx: 8; ry: 8; }
      .sub-box-v2 { stroke: #555; stroke-width: 1; rx: 4; ry: 4; stroke-dasharray: 3 3; }
      .label-v2 { text-anchor: middle; }
      .item-box-v2 { fill: rgba(255,255,255,0.6); stroke: #888; stroke-width: 0.8; rx: 3; ry: 3; }
      .item-text-v2 { font-size: 12px; text-anchor: middle; }
    </style>
  </defs>

  <!-- Thread Shared Area -->
  <rect x="50" y="60" width="900" height="370" fill="rgba(255, 248, 225, 0.5)" stroke="#F0B27A" stroke-width="2" rx="10"/>
  <text x="500" y="90" class="area-title-v2">线程共享区域</text>

  <!-- Heap -->
  <rect x="70" y="120" width="560" height="280" class="box-v2" fill="url(#grad-heap-v2)"/>
  <text x="350" y="150" class="area-title-v2">Java 堆 (Heap)</text>
  <text x="350" y="170" class="label-v2" font-size="12px">(所有对象实例和数组)</text>
  
  <!-- Young Gen -->
  <rect x="90" y="190" width="240" height="190" class="sub-box-v2" fill="rgba(255,255,255,0.3)"/>
  <text x="210" y="215" class="area-title-v2">新生代</text>
  <rect x="100" y="230" width="220" height="70" class="sub-box-v2" fill="rgba(255,255,255,0.4)"/>
  <text x="210" y="265" class="label-v2">Eden 区</text>
  <rect x="100" y="310" width="100" height="60" class="sub-box-v2" fill="rgba(255,255,255,0.4)"/>
  <text x="150" y="340" class="label-v2">Survivor 0</text>
  <rect x="220" y="310" width="100" height="60" class="sub-box-v2" fill="rgba(255,255,255,0.4)"/>
  <text x="270" y="340" class="label-v2">Survivor 1</text>
  
  <!-- Old Gen -->
  <rect x="350" y="190" width="260" height="190" class="sub-box-v2" fill="rgba(255,255,255,0.3)"/>
  <text x="480" y="215" class="area-title-v2">老年代</text>
  <text x="480" y="235" class="label-v2" font-size="12px">(主要存放)</text>
  <rect x="380" y="260" width="200" height="40" class="item-box-v2" />
  <text x="480" y="285" class="item-text-v2">长生命周期对象</text>
  <rect x="380" y="310" width="200" height="40" class="item-box-v2" />
  <text x="480" y="335" class="item-text-v2">体积较大的对象</text>

  <!-- Method Area -->
  <rect x="650" y="120" width="280" height="280" class="box-v2" fill="url(#grad-meta-v2)"/>
  <text x="790" y="150" class="area-title-v2">方法区 (Method Area)</text>
  <rect x="670" y="175" width="120" height="30" class="item-box-v2" /><text x="730" y="195" class="item-text-v2">类信息</text>
  <rect x="800" y="175" width="110" height="30" class="item-box-v2" /><text x="855" y="195" class="item-text-v2">常量</text>
  <rect x="670" y="215" width="120" height="30" class="item-box-v2" /><text x="730" y="235" class="item-text-v2">静态变量</text>
  <rect x="800" y="215" width="110" height="30" class="item-box-v2" /><text x="855" y="235" class="item-text-v2">JIT编译后代码</text>
  <text x="790" y="275" class="label-v2" font-weight="bold">实现: 元空间 (Metaspace)</text>
  <text x="790" y="295" class="label-v2" font-size="12px">(使用本地内存)</text>
  <rect x="670" y="320" width="240" height="50" class="sub-box-v2" fill="rgba(0,0,0,0.05)"/>
  <text x="790" y="345" class="label-v2">运行时常量池</text>

  <!-- Thread Private Area -->
  <rect x="50" y="450" width="900" height="240" fill="rgba(225, 245, 254, 0.5)" stroke="#76D7C4" stroke-width="2" rx="10"/>
  <text x="500" y="480" class="area-title-v2">线程私有区域 (每个线程独立)</text>

  <!-- JVM Stack -->
  <rect x="70" y="510" width="380" height="160" class="box-v2" fill="url(#grad-stack-v2)"/>
  <text x="260" y="535" class="area-title-v2">Java 虚拟机栈</text>
  <g>
    <rect x="90" y="555" width="340" height="105" class="sub-box-v2" fill="rgba(255,255,255,0.4)" stroke-dasharray="4 4" />
    <text x="260" y="575" class="label-v2" font-size="13px" font-weight="bold">栈帧 (Stack Frame)</text>
    <rect x="100" y="590" width="150" height="30" class="item-box-v2"/><text x="175" y="608" class="item-text-v2">局部变量表</text>
    <rect x="270" y="590" width="150" height="30" class="item-box-v2"/><text x="345" y="608" class="item-text-v2">操作数栈</text>
    <rect x="100" y="625" width="150" height="30" class="item-box-v2"/><text x="175" y="643" class="item-text-v2">动态链接</text>
    <rect x="270" y="625" width="150" height="30" class="item-box-v2"/><text x="345" y="643" class="item-text-v2">方法返回地址</text>
  </g>

  <!-- Native Method Stack -->
  <rect x="460" y="510" width="220" height="160" class="box-v2" fill="url(#grad-stack-v2)"/>
  <text x="570" y="570" class="area-title-v2">本地方法栈</text>
  <text x="570" y="610" class="label-v2">为 Native 方法服务</text>

  <!-- PC Register -->
  <rect x="690" y="510" width="240" height="160" class="box-v2" fill="url(#grad-stack-v2)"/>
  <text x="810" y="570" class="area-title-v2">程序计数器</text>
  <text x="810" y="600" class="label-v2">指向当前线程执行的</text>
  <text x="810" y="620" class="label-v2">字节码指令地址</text>
</svg> 