<svg xmlns="http://www.w3.org/2000/svg" width="900" height="500" viewBox="0 0 900 500">
    <defs>
        <linearGradient id="grad-main-mem-v3" x1="0%" y1="0%" x2="0%" y2="100%">
            <stop offset="0%" style="stop-color:#fffbeb;stop-opacity:1" />
            <stop offset="100%" style="stop-color:#fef3c7;stop-opacity:1" />
        </linearGradient>
        <linearGradient id="grad-thread-v3" x1="0%" y1="0%" x2="0%" y2="100%">
            <stop offset="0%" style="stop-color:#f0f9ff;stop-opacity:1" />
            <stop offset="100%" style="stop-color:#e0f2fe;stop-opacity:1" />
        </linearGradient>
        <style>
            .bg { fill: #f8fafc; }
            .panel { stroke-width: 1.5; rx: 16; ry: 16; }
            .panel-main { fill: url(#grad-main-mem-v3); stroke: #facc15; }
            .panel-thread { fill: url(#grad-thread-v3); stroke: #38bdf8; }
            
            .title { font-family: 'Inter', 'Arial', sans-serif; font-size: 18px; font-weight: 600; text-anchor: middle; }
            .title-main { fill: #854d0e; }
            .title-thread { fill: #075985; }

            .subtitle { font-family: 'Inter', 'Arial', sans-serif; font-size: 14px; text-anchor: middle; fill: #52525b; }
            
            .item-box { fill: #ffffff; stroke: #e5e7eb; stroke-width: 1; rx: 8; ry: 8; }
            .item-text { font-family: 'Inter', 'Arial', sans-serif; font-size: 14px; text-anchor: middle; fill: #3f3f46; }
            .item-comment { font-size: 11px; text-anchor: middle; fill: #71717a; }
            
            .connector { fill: none; stroke: #9ca3af; stroke-width: 2; }
            .arrow-start { marker-start: url(#arrowhead-v3); }
            .arrow-end { marker-end: url(#arrowhead-v3); }
            .label { font-family: 'Inter', 'Arial', sans-serif; font-size: 13px; font-weight: 500; fill: #4b5563; text-anchor: middle; }
        </style>
        <marker id="arrowhead-v3" viewBox="0 0 10 10" refX="8" refY="5" markerWidth="6" markerHeight="6" orient="auto-start-reverse">
            <path d="M 0 0 L 10 5 L 0 10 z" fill="#9ca3af"/>
        </marker>
    </defs>

    <rect x="0" y="0" width="900" height="500" class="bg"/>

    <!-- Main Memory -->
    <g transform="translate(450, 250)">
        <rect x="-150" y="-200" width="300" height="400" class="panel panel-main"/>
        <text y="-165" class="title title-main">主内存 (Main Memory)</text>
        <text y="-140" class="subtitle">(所有线程共享)</text>
        
        <rect x="-110" y="-80" width="220" height="50" class="item-box"/>
        <text y="-55" class="item-text">共享变量 A = 0</text>
        
        <rect x="-110" y="-10" width="220" height="50" class="item-box"/>
        <text y="15" class="item-text">共享变量 B = "abc"</text>
        
        <rect x="-110" y="60" width="220" height="50" class="item-box"/>
        <text y="85" class="item-text">...</text>
    </g>

    <!-- Thread A -->
    <g transform="translate(150, 250)">
        <rect x="-125" y="-150" width="250" height="300" class="panel panel-thread"/>
        <text y="-115" class="title title-thread">线程 A</text>
        
        <rect x="-100" y="-85" width="200" height="180" style="fill:rgba(255,255,255,0.4); stroke:#bae6fd; rx:8; stroke-dasharray: 4 4;"/>
        <text y="-60" class="subtitle">工作内存</text>

        <rect x="-80" y="0" width="160" height="60" class="item-box"/>
        <text y="25" class="item-text">变量 A 副本 = 0</text>
        <text y="40" class="item-comment">(从主内存 load)</text>
    </g>
    
    <!-- Thread B -->
    <g transform="translate(750, 250)">
        <rect x="-125" y="-150" width="250" height="300" class="panel panel-thread"/>
        <text y="-115" class="title title-thread">线程 B</text>

        <rect x="-100" y="-85" width="200" height="180" style="fill:rgba(255,255,255,0.4); stroke:#bae6fd; rx:8; stroke-dasharray: 4 4;"/>
        <text y="-60" class="subtitle">工作内存</text>

        <rect x="-80" y="0" width="160" height="60" class="item-box"/>
        <text y="25" class="item-text">变量 B 副本 = "abc"</text>
        <text y="40" class="item-comment">(从主内存 load)</text>
    </g>

    <!-- Connectors -->
    <!-- Thread A <--> Main Memory -->
    <path d="M 275 240 C 310 240, 310 240, 300 240" class="connector arrow-end"/>
    <text x="312" y="230" class="label">Load</text>
    <path d="M 300 260 C 310 260, 310 260, 275 260" class="connector arrow-start"/>
    <text x="312" y="275" class="label">Store</text>

    <!-- Thread B <--> Main Memory -->
    <path d="M 600 240 C 590 240, 590 240, 625 240" class="connector arrow-start"/>
    <text x="588" y="230" class="label">Load</text>
    <path d="M 625 260 C 590 260, 590 260, 600 260" class="connector arrow-end"/>
    <text x="588" y="275" class="label">Store</text>
</svg> 