<?xml version="1.0" encoding="UTF-8"?>
<svg xmlns="http://www.w3.org/2000/svg" width="1200" height="720" viewBox="0 0 1200 720">
  <defs>
    <filter id="shadow" x="-20%" y="-20%" width="140%" height="140%">
      <feDropShadow dx="0" dy="2" stdDeviation="4" flood-color="#000" flood-opacity="0.12"/>
    </filter>
    <style>
      .h1 { font: 700 22px 'Inter', Arial, sans-serif; fill: #1f2a44; }
      .h2 { font: 700 16px 'Inter', Arial, sans-serif; fill: #24324d; }
      .txt { font: 600 13px 'Inter', Arial, sans-serif; fill: #24324d; }
      .sub { font: 500 12px 'Inter', Arial, sans-serif; fill: #3a4a66; }
      .panel { stroke: #7aa5b7; fill: rgba(225,245,254,0.6); rx: 16; filter: url(#shadow); }
      .box { stroke: #8aa0b3; fill: #fff; rx: 12; filter: url(#shadow); }
    </style>
  </defs>

  <text x="24" y="36" class="h1">数据存储技术体系概览</text>

  <rect x="24" y="64" width="560" height="300" class="panel"/>
  <text x="48" y="92" class="h2">关系型数据库</text>
  <rect x="48" y="112" width="520" height="96" class="box"/>
  <text x="60" y="138" class="txt">MySQL / PostgreSQL</text>
  <text x="60" y="162" class="sub">事务、索引、执行计划、优化</text>
  <rect x="48" y="224" width="520" height="96" class="box"/>
  <text x="60" y="250" class="txt">读写分离 / 分库分表（概念）</text>
  <text x="60" y="274" class="sub">主从、分片、全局ID</text>

  <rect x="616" y="64" width="560" height="300" class="panel"/>
  <text x="640" y="92" class="h2">缓存与Key-Value</text>
  <rect x="640" y="112" width="520" height="96" class="box"/>
  <text x="652" y="138" class="txt">Redis</text>
  <text x="652" y="162" class="sub">数据结构、持久化、淘汰、过期</text>
  <rect x="640" y="224" width="520" height="96" class="box"/>
  <text x="652" y="250" class="txt">缓存模式</text>
  <text x="652" y="274" class="sub">Cache Aside / Read Through / Write Back</text>

  <rect x="24" y="384" width="560" height="280" class="panel"/>
  <text x="48" y="412" class="h2">文档数据库</text>
  <rect x="48" y="432" width="520" height="96" class="box"/>
  <text x="60" y="458" class="txt">MongoDB</text>
  <text x="60" y="482" class="sub">文档模型、索引、聚合</text>

  <rect x="616" y="384" width="560" height="280" class="panel"/>
  <text x="640" y="412" class="h2">搜索与检索</text>
  <rect x="640" y="432" width="520" height="96" class="box"/>
  <text x="652" y="458" class="txt">Elasticsearch</text>
  <text x="652" y="482" class="sub">倒排索引、分片与副本、聚合</text>

</svg> 