<?xml version="1.0" encoding="UTF-8"?>
<svg xmlns="http://www.w3.org/2000/svg" width="1100" height="540" viewBox="0 0 1100 540">
  <defs>
    <style>
      .h1{font:700 20px 'Inter',Arial,sans-serif;fill:#1f2a44}
      .txt{font:600 13px 'Inter',Arial,sans-serif;fill:#24324d}
      .sub{font:500 12px 'Inter',Arial,sans-serif;fill:#3a4a66}
      .box{stroke:#8aa0b3;fill:#fff;rx:12}
      .arr{stroke:#5f6f86;stroke-width:1.6;fill:none;marker-end:url(#arrow)}
    </style>
    <marker id="arrow" viewBox="0 0 10 10" refX="9" refY="5" markerWidth="7" markerHeight="7" orient="auto-start-reverse">
      <path d="M0 0 L10 5 L0 10 Z" fill="#5f6f86"/>
    </marker>
  </defs>
  <text x="24" y="36" class="h1">慢查询治理闭环</text>

  <rect x="60" y="120" width="180" height="80" class="box"/>
  <text x="72" y="166" class="txt">发现</text>
  <text x="72" y="190" class="sub">慢日志/告警/APM</text>

  <path d="M 240 160 L 300 160" class="arr"/>
  <rect x="300" y="120" width="180" height="80" class="box"/>
  <text x="312" y="166" class="txt">分析</text>
  <text x="312" y="190" class="sub">标准化 SQL/TopN</text>

  <path d="M 480 160 L 540 160" class="arr"/>
  <rect x="540" y="120" width="180" height="80" class="box"/>
  <text x="552" y="166" class="txt">优化</text>
  <text x="552" y="190" class="sub">索引/SQL/缓存</text>

  <path d="M 720 160 L 780 160" class="arr"/>
  <rect x="780" y="120" width="180" height="80" class="box"/>
  <text x="792" y="166" class="txt">验证</text>
  <text x="792" y="190" class="sub">压测/灰度/A-B</text>

  <path d="M 870 200 L 870 320 L 150 320 L 150 200" class="arr"/>
  <text x="160" y="320" class="sub">回归：基线更新/阈值调整/回滚预案</text>
</svg> 